# xmcd
#
# Track frame offsets:
#	150
#	18469
#	37886
#	56931
#	75628
#	94742
#	112326
#	130742
#	153178
#	167880
#	187263
#	200456
#	215504
#	233185
#	252589
#	271312
#
# Disc length: 3828 seconds
#
# Revision: 0
# Processed by: cddbd v1.5.2PL0 Copyright (c) Steve Scherf et al.
# Submitted via: EasyCDDAExtractor 11.1.0.1
#
DISCID=e80ef210
DTITLE=Reijo Mäki - Uhkapelimerkki CD03
DYEAR=1900
DGENRE=
TTITLE0=CD03.01
TTITLE1=CD03.02
TTITLE2=CD03.03
TTITLE3=CD03.04
TTITLE4=CD03.05
TTITLE5=CD03.06
TTITLE6=CD03.07
TTITLE7=CD03.08
TTITLE8=CD03.09
TTITLE9=CD03.10
TTITLE10=CD03.11
TTITLE11=CD03.12
TTITLE12=CD03.13
TTITLE13=CD03.14
TTITLE14=CD03.15
TTITLE15=CD03.16
EXTD=
EXTT0=
EXTT1=
EXTT2=
EXTT3=
EXTT4=
EXTT5=
EXTT6=
EXTT7=
EXTT8=
EXTT9=
EXTT10=
EXTT11=
EXTT12=
EXTT13=
EXTT14=
EXTT15=
PLAYORDER=
